<svg width="383" height="124" viewBox="0 0 383 124" fill="none" xmlns="http://www.w3.org/2000/svg">
<path d="M64.68 59.7123H107.415V110.45C101.255 114.96 94.6825 118.232 87.6975 120.267C80.7675 122.302 73.5075 123.32 65.9175 123.32C56.0175 123.32 46.9975 121.78 38.8575 118.7C30.7725 115.565 23.8425 111.275 18.0675 105.83C12.2925 100.33 7.8375 93.8398 4.7025 86.3598C1.5675 78.8248 0 70.6573 0 61.8573C0 52.8923 1.485 44.6698 4.455 37.1898C7.425 29.6548 11.66 23.1648 17.16 17.7198C22.715 12.2748 29.3975 8.03979 37.2075 5.01479C45.0725 1.98979 53.845 0.477295 63.525 0.477295C68.53 0.477295 73.2325 0.889795 77.6325 1.71479C82.0325 2.53979 86.075 3.66729 89.76 5.09729C93.5 6.5273 96.91 8.23229 99.99 10.2123C103.07 12.1923 105.82 14.3373 108.24 16.6473L100.155 28.9398C98.89 30.8648 97.24 32.0473 95.205 32.4873C93.225 32.9273 91.08 32.4323 88.77 31.0023C86.57 29.6823 84.48 28.5548 82.5 27.6198C80.575 26.6298 78.595 25.8323 76.56 25.2273C74.525 24.6223 72.38 24.1823 70.125 23.9073C67.87 23.6323 65.34 23.4948 62.535 23.4948C57.31 23.4948 52.6075 24.4298 48.4275 26.2998C44.2475 28.1148 40.6725 30.6998 37.7025 34.0548C34.7875 37.4098 32.5325 41.4523 30.9375 46.1823C29.3425 50.8573 28.545 56.0823 28.545 61.8573C28.545 68.2373 29.425 73.9023 31.185 78.8523C32.945 83.8023 35.42 87.9823 38.61 91.3923C41.855 94.8023 45.705 97.4148 50.16 99.2298C54.67 100.99 59.6475 101.87 65.0925 101.87C68.4475 101.87 71.4725 101.54 74.1675 100.88C76.9175 100.22 79.585 99.3398 82.17 98.2398V80.0073H70.29C68.53 80.0073 67.155 79.5398 66.165 78.6048C65.175 77.6698 64.68 76.4873 64.68 75.0573V59.7123Z" fill="black"/>
<path d="M231.108 1.79729V122H216.588C214.443 122 212.628 121.67 211.143 121.01C209.713 120.295 208.283 119.085 206.853 117.38L150.176 45.6873C150.396 47.8323 150.533 49.9223 150.588 51.9573C150.698 53.9373 150.753 55.8073 150.753 57.5673V122H126.168V1.79729H140.853C142.063 1.79729 143.081 1.8523 143.906 1.9623C144.731 2.07229 145.473 2.29229 146.133 2.6223C146.793 2.8973 147.426 3.3098 148.031 3.85979C148.636 4.40979 149.323 5.15229 150.093 6.08729L207.266 78.2748C206.991 75.9648 206.798 73.7373 206.688 71.5923C206.578 69.3923 206.523 67.3298 206.523 65.4048V1.79729H231.108Z" fill="black"/>
<path d="M239 95.5991L371.97 13L382.779 30.401L249.809 113L239 95.5991Z" fill="black"/>
<path fill-rule="evenodd" clip-rule="evenodd" d="M310.5 100C331.763 100 349 82.763 349 61.5C349 40.237 331.763 23 310.5 23C289.237 23 272 40.237 272 61.5C272 82.763 289.237 100 310.5 100ZM310.5 123C344.466 123 372 95.4655 372 61.5C372 27.5345 344.466 0 310.5 0C276.534 0 249 27.5345 249 61.5C249 95.4655 276.534 123 310.5 123Z" fill="black"/>
</svg>
