<svg width="24" height="24" viewBox="0 0 24 24" fill="none" xmlns="http://www.w3.org/2000/svg">
<g id="vuesax/bold/book">
<path id="Vector" d="M20.5 16V18.5C20.5 20.43 18.93 22 17 22H7C5.07 22 3.5 20.43 3.5 18.5V17.85C3.5 16.28 4.78 15 6.35 15H19.5C20.05 15 20.5 15.45 20.5 16Z" fill="#FFFFFF"/>
<path id="Vector_2" d="M15.5 2H8.5C4.5 2 3.5 3 3.5 7V14.58C4.26 13.91 5.26 13.5 6.35 13.5H19.5C20.05 13.5 20.5 13.05 20.5 12.5V7C20.5 3 19.5 2 15.5 2ZM13 10.75H8C7.59 10.75 7.25 10.41 7.25 10C7.25 9.59 7.59 9.25 8 9.25H13C13.41 9.25 13.75 9.59 13.75 10C13.75 10.41 13.41 10.75 13 10.75ZM16 7.25H8C7.59 7.25 7.25 6.91 7.25 6.5C7.25 6.09 7.59 5.75 8 5.75H16C16.41 5.75 16.75 6.09 16.75 6.5C16.75 6.91 16.41 7.25 16 7.25Z" fill="#FFFFFF"/>
</g>
</svg>
