<svg width="139" height="32" viewBox="0 0 139 32" fill="none" xmlns="http://www.w3.org/2000/svg">
<path fill-rule="evenodd" clip-rule="evenodd" d="M69.2581 0C66.5952 3.1421 62.3704 7.6666 59.5474 10.6721L59.5506 10.6688C53.5463 16.9921 46.9146 23.6276 40.4782 29.4889L39.486 30.3932L37.7704 32C38.369 31.3722 39.2363 30.2891 40.0973 29.1637C41.7104 27.0559 42.7058 23.4682 41.512 21.0872C39.0955 16.2602 39.8668 10.1939 43.8356 6.16385C47.8044 2.13377 53.7703 1.34661 58.52 3.8024C60.8629 5.01565 64.3932 4.00407 66.4671 2.36471C67.5746 1.48648 68.6404 0.608254 69.2581 0ZM58.7441 6.91523C55.7323 4.66762 51.6867 4.19598 48.3069 5.96869H48.3037C42.3089 9.1173 41.0703 16.4554 44.591 21.3344C45.1959 21.9297 46.1497 21.9362 46.761 21.3572L46.8122 21.3051C43.5251 17.9646 43.5251 12.5294 46.8122 9.18886C50.0992 5.84834 55.4474 5.84834 58.7345 9.18886L58.7441 9.1791C59.3586 8.55458 59.3586 7.543 58.7441 6.91523ZM47.3531 20.7717C47.7115 21.136 48.2909 21.136 48.6461 20.7717L48.6493 20.7684C51.7603 17.5873 55.0634 14.2273 58.1968 11.0657C58.5552 10.7014 58.5712 10.1029 58.2128 9.73531L58.2064 9.72881C55.2106 6.68754 50.3393 6.68754 47.3467 9.72881C44.3541 12.7733 44.3541 17.7239 47.3467 20.7652L47.3531 20.7717ZM76.8083 3.08356H74.5999V23.3511H76.8083V3.08356ZM7.97593 7.87477C11.2118 7.87477 13.7178 9.21813 15.0653 11.2999V8.42448H17.2769V21.7052C17.2769 27.0754 13.3146 29.3751 8.57125 29.3751C5.95634 29.3751 3.1014 28.5521 1.51069 27.3747L2.56049 25.6507C3.95916 26.581 5.92754 27.3747 8.3536 27.3747C12.668 27.3747 15.0653 25.5954 15.0653 21.9784V20.4725C13.7178 22.5542 10.9397 23.8975 7.97593 23.8975C3.07259 23.8975 0 20.7197 0 15.8992C0 11.0787 3.07259 7.87477 7.97593 7.87477ZM13.593 20.1374C14.5724 19.2429 15.0653 17.9191 15.0653 16.5822H15.0685V15.2161C15.0685 13.7296 14.4348 12.2984 13.289 11.3747C11.9639 10.3078 10.3508 9.87518 8.54564 9.87518C4.50326 9.87518 2.24043 12.0675 2.24043 15.9024C2.24043 19.7373 4.50326 21.9004 8.54564 21.9004C10.4916 21.9004 12.2167 21.3962 13.593 20.1374ZM23.5214 11.5178C24.8944 9.27018 27.3749 7.87477 30.5275 7.87477V7.88128C35.082 7.88128 37.2648 10.838 37.2648 14.9201V23.3543H35.0564V15.0827C35.0564 12.318 32.8351 9.88494 30.1146 9.87843C27.8358 9.87193 25.8642 10.7209 24.4751 12.4611C23.8446 13.2515 23.5214 14.2566 23.5214 15.2779V23.3511H21.3129V8.42448H23.5214V11.5178ZM88.8075 7.87477C93.7397 7.87477 96.7578 10.3403 96.7578 15.0795H96.761V20.4464C96.761 21.5719 96.9499 22.4761 97.462 23.3511H95.1159C94.6838 22.6095 94.495 21.8158 94.495 20.9669V20.9116C93.3364 22.5282 91.0447 23.8975 87.8377 23.8975C84.6307 23.8975 80.3451 22.5542 80.3451 18.6119C80.3451 14.6697 84.6563 13.3263 87.8377 13.3263C91.0191 13.3263 93.3364 14.6697 94.495 16.3123V15.0795C94.495 11.4625 92.4722 9.81988 88.4298 9.81988C86.0838 9.81988 84.3074 10.4769 82.6623 11.5438L81.6381 9.9012C83.3633 8.72372 86.1382 7.87477 88.8075 7.87477ZM88.0266 22.0337C90.507 22.0337 93.282 21.1848 94.5494 18.8851V18.8786V18.3322C93.282 16.0065 90.507 15.1836 88.0266 15.1836C85.8693 15.1836 82.5279 15.8146 82.5279 18.6087C82.5279 21.4027 85.8693 22.0337 88.0266 22.0337ZM110.556 7.87477C107.403 7.87477 104.922 9.27018 103.549 11.5178V8.42448H101.341V23.3511H103.549V15.1901C103.549 14.2728 103.818 13.3653 104.366 12.6367C105.761 10.7762 107.787 9.87193 110.143 9.87518C112.863 9.88168 115.084 12.3147 115.084 15.0795V23.3511H117.293V14.9169C117.293 10.8347 115.11 7.87802 110.556 7.87802V7.87477ZM136.055 11.2999V3.08356H138.267V23.3478H136.055V20.4725C134.707 22.5542 132.198 23.8975 128.966 23.8975C124.062 23.8975 120.99 20.7197 120.99 15.8992C120.99 11.0787 124.062 7.87477 128.966 7.87477C132.201 7.87477 134.707 9.21814 136.055 11.2999ZM135.146 19.5552C135.738 18.8689 136.055 17.9776 136.055 17.0669V17.0636V14.7022C136.055 13.7914 135.738 12.9002 135.146 12.2139C133.69 10.529 131.753 9.87193 129.532 9.87193C125.49 9.87193 123.227 12.0642 123.227 15.8992C123.227 19.7341 125.49 21.8971 129.532 21.8971C131.756 21.8971 133.69 21.2401 135.146 19.5552ZM68.7844 20.4367C67.837 20.4367 67.0689 21.2173 67.0689 22.1801C67.0689 23.1429 67.837 23.9236 68.7844 23.9236C69.7318 23.9236 70.4999 23.1429 70.4999 22.1801C70.4999 21.2173 69.7318 20.4367 68.7844 20.4367ZM49.3983 23.0421C49.7343 22.7201 50.2112 22.616 50.6561 22.7461C53.2518 23.4975 56.1644 22.8404 58.2064 20.7652C60.2452 18.6932 60.8949 15.7365 60.1555 13.0986C60.0275 12.6465 60.1299 12.1618 60.4468 11.8203L60.482 11.7813C61.8487 14.9234 61.2662 18.7355 58.7377 21.3052C56.206 23.878 52.4517 24.4668 49.3599 23.0779L49.3983 23.0421ZM62.2424 13.4564C63.0841 16.6701 62.1783 20.1179 59.8707 22.4631C57.5567 24.8148 54.1512 25.7353 50.9826 24.8636C49.824 24.5448 48.6205 24.7953 47.7244 25.5271C52.0868 28.1748 57.6015 27.4885 61.2118 23.8227C64.8157 20.1602 65.4942 14.5558 62.8921 10.1224C62.1751 11.0396 61.9319 12.2692 62.2424 13.4564Z" fill="black"/>
</svg>
