<svg width="194" height="194" viewBox="0 0 194 194" fill="none" xmlns="http://www.w3.org/2000/svg">
<g clip-path="url(#clip0_32_49)">
<path d="M79.22 137.62C76.49 136.84 73.55 137.46 71.49 139.41L71.25 139.63C90.27 148.04 113.34 144.47 128.91 128.91C144.47 113.35 148.03 90.3 139.64 71.28L139.42 71.52C137.47 73.59 136.85 76.52 137.63 79.25C142.18 95.21 138.19 113.1 125.65 125.65C113.1 138.2 95.19 142.19 79.23 137.63L79.22 137.62Z" fill="white"/>
<path d="M150.47 81.41C155.65 100.85 150.07 121.72 135.89 135.89C121.67 150.11 100.72 155.68 81.23 150.42C74.11 148.5 66.71 150 61.19 154.44C88.02 170.46 121.93 166.3 144.11 144.12C166.28 121.95 170.44 88.06 154.45 61.23C150.04 66.79 148.54 74.23 150.45 81.41H150.47Z" fill="white"/>
<path d="M133.91 64.57C151.27 46.39 177.25 19 193.61 0C189.81 3.67 183.26 9 176.44 14.3C163.68 24.22 141.98 30.34 127.57 23.01C98.37 8.14 61.67 12.9 37.28 37.3C12.89 61.69 8.13001 98.39 22.99 127.59C30.32 141.99 24.21 163.7 14.28 176.46C8.98001 183.28 3.65001 189.83 -0.019989 193.63L10.53 183.91L16.62 178.45C56.19 142.98 96.98 102.84 133.89 64.58L133.91 64.57ZM64.79 36.11C85.57 25.38 110.46 28.24 128.97 41.84C132.75 45.63 132.75 51.76 128.97 55.55L128.91 55.61C108.7 35.4 75.82 35.4 55.61 55.61C35.4 75.82 35.4 108.7 55.61 128.91L55.29 129.23C51.52 132.73 45.67 132.69 41.96 129.09C20.32 99.57 27.93 55.16 64.8 36.12L64.79 36.11ZM66.87 125.67C64.68 127.88 61.12 127.88 58.92 125.68L58.88 125.64C40.47 107.23 40.47 77.28 58.88 58.87C77.29 40.46 107.24 40.46 125.65 58.87L125.69 58.91C127.9 61.13 127.8 64.75 125.58 66.96C106.32 86.1 86 106.41 66.87 125.67Z" fill="white"/>
</g>
<defs>
<clipPath id="clip0_32_49">
<rect width="193.61" height="193.61" fill="white"/>
</clipPath>
</defs>
</svg>
