<svg width="390" height="390" viewBox="0 0 390 390" fill="none" xmlns="http://www.w3.org/2000/svg">
<path d="M68.68 192.712H111.415V243.45C105.255 247.96 98.6825 251.232 91.6975 253.267C84.7675 255.302 77.5075 256.32 69.9175 256.32C60.0175 256.32 50.9975 254.78 42.8575 251.7C34.7725 248.565 27.8425 244.275 22.0675 238.83C16.2925 233.33 11.8375 226.84 8.7025 219.36C5.5675 211.825 4 203.657 4 194.857C4 185.892 5.485 177.67 8.455 170.19C11.425 162.655 15.66 156.165 21.16 150.72C26.715 145.275 33.3975 141.04 41.2075 138.015C49.0725 134.99 57.845 133.477 67.525 133.477C72.53 133.477 77.2325 133.89 81.6325 134.715C86.0325 135.54 90.075 136.667 93.76 138.097C97.5 139.527 100.91 141.232 103.99 143.212C107.07 145.192 109.82 147.337 112.24 149.647L104.155 161.94C102.89 163.865 101.24 165.047 99.205 165.487C97.225 165.927 95.08 165.432 92.77 164.002C90.57 162.682 88.48 161.555 86.5 160.62C84.575 159.63 82.595 158.832 80.56 158.227C78.525 157.622 76.38 157.182 74.125 156.907C71.87 156.632 69.34 156.495 66.535 156.495C61.31 156.495 56.6075 157.43 52.4275 159.3C48.2475 161.115 44.6725 163.7 41.7025 167.055C38.7875 170.41 36.5325 174.452 34.9375 179.182C33.3425 183.857 32.545 189.082 32.545 194.857C32.545 201.237 33.425 206.902 35.185 211.852C36.945 216.802 39.42 220.982 42.61 224.392C45.855 227.802 49.705 230.415 54.16 232.23C58.67 233.99 63.6475 234.87 69.0925 234.87C72.4475 234.87 75.4725 234.54 78.1675 233.88C80.9175 233.22 83.585 232.34 86.17 231.24V213.007H74.29C72.53 213.007 71.155 212.54 70.165 211.605C69.175 210.67 68.68 209.487 68.68 208.057V192.712Z" fill="black"/>
<path d="M235.108 134.797V255H220.588C218.443 255 216.628 254.67 215.143 254.01C213.713 253.295 212.283 252.085 210.853 250.38L154.176 178.687C154.396 180.832 154.533 182.922 154.588 184.957C154.698 186.937 154.753 188.807 154.753 190.567V255H130.168V134.797H144.853C146.063 134.797 147.081 134.852 147.906 134.962C148.731 135.072 149.473 135.292 150.133 135.622C150.793 135.897 151.426 136.31 152.031 136.86C152.636 137.41 153.323 138.152 154.093 139.087L211.266 211.275C210.991 208.965 210.798 206.737 210.688 204.592C210.578 202.392 210.523 200.33 210.523 198.405V134.797H235.108Z" fill="black"/>
<path d="M243 228.599L375.97 146L386.779 163.401L253.809 246L243 228.599Z" fill="black"/>
<path fill-rule="evenodd" clip-rule="evenodd" d="M314.5 233C335.763 233 353 215.763 353 194.5C353 173.237 335.763 156 314.5 156C293.237 156 276 173.237 276 194.5C276 215.763 293.237 233 314.5 233ZM314.5 256C348.466 256 376 228.466 376 194.5C376 160.534 348.466 133 314.5 133C280.534 133 253 160.534 253 194.5C253 228.466 280.534 256 314.5 256Z" fill="black"/>
</svg>
