<svg width="16" height="14" viewBox="0 0 16 14" fill="none" xmlns="http://www.w3.org/2000/svg">
<path d="M13.4914 1.9083C12.4664 1.4333 11.3748 1.0833 10.2248 0.883301C10.0831 1.1333 9.91643 1.47497 9.8081 1.74997C8.59143 1.56663 7.3831 1.56663 6.19144 1.74997C6.07477 1.47497 5.9081 1.1333 5.76644 0.883301C4.61644 1.0833 3.52477 1.4333 2.49977 1.9083C0.433105 5.02497 -0.125228 8.06666 0.149772 11.0583C1.52477 12.0833 2.84977 12.7 4.1581 13.1083C4.4831 12.6667 4.76644 12.1917 5.01644 11.7C4.54144 11.525 4.09144 11.3 3.66644 11.0417C3.7831 10.9583 3.89144 10.8667 3.99977 10.7833C6.6081 12 9.4331 12 12.0081 10.7833C12.1164 10.875 12.2248 10.9583 12.3414 11.0417C11.9164 11.3 11.4581 11.5167 10.9914 11.7C11.2414 12.1917 11.5248 12.6667 11.8498 13.1083C13.1581 12.7 14.4914 12.0833 15.8581 11.0583C16.1831 7.58333 15.2998 4.57497 13.5081 1.9083H13.4914ZM5.36644 9.22499C4.5831 9.22499 3.94144 8.49999 3.94144 7.60833C3.94144 6.71666 4.56644 5.99166 5.36644 5.99166C6.16644 5.99166 6.79976 6.71666 6.79143 7.60833C6.79143 8.49166 6.16644 9.22499 5.36644 9.22499ZM10.6248 9.22499C9.84143 9.22499 9.19976 8.49999 9.19976 7.60833C9.19976 6.71666 9.82476 5.99166 10.6248 5.99166C11.4248 5.99166 12.0581 6.71666 12.0498 7.60833C12.0498 8.49166 11.4248 9.22499 10.6248 9.22499Z" fill="#C7C7C7"/>
</svg>
