<svg width="14" height="12" viewBox="0 0 14 12" fill="none" xmlns="http://www.w3.org/2000/svg">
<path d="M4.44937 11.5876C2.85687 11.5876 1.37375 11.1207 0.125 10.3176C0.86355 10.4073 1.61254 10.3504 2.32907 10.1501C3.04559 9.94991 3.71557 9.61027 4.30062 9.15069C3.71177 9.1399 3.14107 8.94502 2.66861 8.59339C2.19614 8.24176 1.84563 7.75103 1.66625 7.19006C1.83875 7.22381 2.01563 7.24131 2.19625 7.24131C2.45375 7.24131 2.70375 7.20631 2.94187 7.14381C2.30352 7.01453 1.72947 6.6686 1.31693 6.16459C0.904386 5.66059 0.678713 5.0295 0.678125 4.37819V4.34131C1.06923 4.5592 1.50689 4.68008 1.95438 4.69381C1.5677 4.43618 1.25076 4.08691 1.03179 3.67711C0.812825 3.2673 0.698627 2.8097 0.699375 2.34506C0.699375 1.83006 0.84 1.34381 1.08188 0.927561C1.79018 1.79904 2.67389 2.51178 3.6756 3.01947C4.67732 3.52717 5.77462 3.81846 6.89625 3.87444C6.75572 3.26963 6.8185 2.63536 7.07487 2.06983C7.33125 1.50431 7.76691 1.03908 8.31441 0.746185C8.86191 0.453288 9.4907 0.349061 10.1034 0.449643C10.7161 0.550224 11.2786 0.850003 11.7037 1.30256C12.3352 1.17757 12.9409 0.946376 13.495 0.618811C13.2842 1.27194 12.8439 1.82657 12.2556 2.18006C12.8146 2.11332 13.3606 1.96377 13.8756 1.73631C13.4959 2.30206 13.0194 2.79649 12.4681 3.19694C12.4731 3.31756 12.4769 3.43944 12.4769 3.56131C12.4763 7.28756 9.63812 11.5882 4.44937 11.5876Z" fill="#C7C7C7"/>
</svg>
