<svg width="14" height="14" viewBox="0 0 14 14" fill="none" xmlns="http://www.w3.org/2000/svg">
<path d="M7.00016 0.333374C5.68166 0.333374 4.39269 0.724366 3.29636 1.45691C2.20004 2.18945 1.34555 3.23064 0.840971 4.44882C0.336387 5.66696 0.204362 7.00746 0.461595 8.30062C0.718829 9.59387 1.35377 10.7817 2.28612 11.7141C3.21847 12.6465 4.40635 13.2814 5.69958 13.5386C6.99274 13.7959 8.33324 13.6638 9.55141 13.1592C10.7696 12.6546 11.8107 11.8002 12.5433 10.7039C13.2758 9.60754 13.6668 8.31862 13.6668 7.00004C13.6668 5.23193 12.9644 3.53624 11.7142 2.286C10.464 1.03575 8.76824 0.333374 7.00016 0.333374ZM10.2752 4.90004L9.18349 10.0584C9.10016 10.425 8.88349 10.5084 8.57516 10.3417L6.9085 9.10837L6.07516 9.88337C6.03591 9.93462 5.9855 9.97629 5.92775 10.0052C5.87 10.034 5.80641 10.0494 5.74183 10.05L5.8585 8.38337L8.94183 5.59171C9.08349 5.47504 8.94183 5.40837 8.74183 5.52504L4.9585 7.90004L3.29183 7.38337C2.9335 7.27504 2.92516 7.02504 3.36683 6.85837L9.79183 4.35837C10.1085 4.26671 10.3752 4.45004 10.2752 4.90004Z" fill="#C7C7C7"/>
</svg>
