<svg width="14" height="12" viewBox="0 0 14 12" fill="none" xmlns="http://www.w3.org/2000/svg">
<path d="M12.2031 1.19313C12.2031 1.19313 10.5438 0.984375 6.98 0.984375C3.53188 0.984375 1.79625 1.19313 1.79625 1.19313C1.35295 1.19329 0.927862 1.36951 0.61446 1.68303C0.301058 1.99655 0.125 2.4217 0.125 2.865V9.13625C0.124918 9.3558 0.168081 9.57322 0.252025 9.7761C0.335969 9.97897 0.459049 10.1633 0.614239 10.3186C0.769429 10.4739 0.953689 10.5972 1.1565 10.6812C1.35931 10.7653 1.5767 10.8087 1.79625 10.8088C1.79625 10.8088 3.41 11.0162 6.98 11.0162C10.5481 11.0162 12.2031 10.8088 12.2031 10.8088C12.4228 10.8089 12.6403 10.7658 12.8433 10.6818C13.0462 10.5978 13.2306 10.4746 13.3859 10.3192C13.5412 10.1639 13.6643 9.97942 13.7483 9.77644C13.8322 9.57345 13.8752 9.3559 13.875 9.13625V2.86375C13.875 2.64426 13.8317 2.42691 13.7477 2.22414C13.6637 2.02137 13.5405 1.83715 13.3852 1.682C13.23 1.52685 13.0457 1.40382 12.8428 1.31994C12.64 1.23605 12.4226 1.19296 12.2031 1.19313ZM5.16313 8.48438V3.51875L9.62187 6L5.16313 8.48438Z" fill="#C7C7C7"/>
</svg>
