<?xml version="1.0" standalone="no"?>
<!DOCTYPE svg PUBLIC "-//W3C//DTD SVG 20010904//EN"
 "http://www.w3.org/TR/2001/REC-SVG-20010904/DTD/svg10.dtd">
<svg version="1.0" xmlns="http://www.w3.org/2000/svg"
 width="1024.000000pt" height="1024.000000pt" viewBox="0 0 1024.000000 1024.000000"
 preserveAspectRatio="xMidYMid meet">
<metadata>
Created by potrace 1.14, written by Peter Selinger 2001-2017
</metadata>
<g transform="translate(0.000000,1024.000000) scale(0.100000,-0.100000)"
fill="#000000" stroke="none">
<path d="M0 5120 l0 -5120 5120 0 5120 0 0 5120 0 5120 -5120 0 -5120 0 0
-5120z m6650 3539 c95 -43 143 -116 144 -219 0 -44 -5 -76 -18 -100 -10 -19
-175 -193 -368 -386 l-349 -350 87 -145 c468 -779 793 -1590 907 -2264 39
-228 41 -254 20 -295 -40 -76 -136 -103 -204 -57 -19 13 -63 47 -99 76 -313
253 -768 407 -1340 452 -182 14 -620 6 -791 -15 -508 -62 -905 -216 -1213
-470 -38 -31 -80 -59 -93 -62 -83 -21 -171 36 -180 117 -7 63 39 331 98 569
178 723 549 1521 1087 2340 207 316 483 694 543 745 36 30 104 64 154 76 17 4
377 7 800 8 754 1 771 0 815 -20z m-2952 -4135 c41 -29 43 -52 10 -180 -33
-132 -33 -185 1 -252 38 -75 145 -142 227 -142 55 0 107 25 405 196 192 109
353 194 403 212 279 102 574 90 831 -32 50 -24 212 -113 360 -198 149 -86 290
-161 315 -168 117 -32 254 42 296 159 20 54 16 126 -11 231 -14 52 -25 104
-25 114 0 29 39 66 69 66 70 0 308 -199 413 -345 196 -273 241 -689 113 -1045
-64 -176 -148 -306 -294 -450 -96 -95 -173 -152 -790 -584 -377 -263 -710
-490 -740 -505 -49 -23 -69 -26 -161 -26 -97 0 -110 2 -166 30 -92 46 -1417
980 -1499 1057 -87 81 -168 184 -230 293 -254 446 -199 1026 130 1358 96 97
272 226 310 227 6 0 21 -7 33 -16z"/>
</g>
</svg>
