<svg height="1024pt" preserveAspectRatio="xMidYMid meet" viewBox="0 0 1024 1024" width="1024pt" xmlns="http://www.w3.org/2000/svg"><g transform="matrix(.1 0 0 -.1 0 1024)"><path d="m5000 9456c-121-34-183-85-319-266-358-473-723-1033-1000-1530-515-925-858-1869-958-2637l-16-130 22-47c29-59 88-96 154-96 64 0 81 9 172 85 431 360 1021 553 1815 596 923 49 1724-144 2242-540 183-140 185-141 242-141 97 0 175 74 176 165 0 55-43 321-80 495-167 789-542 1682-1086 2590l-93 155 429 430c477 478 473 473 473 597 0 84-35 160-99 217-85 75-26 71-1083 70-723-1-957-4-991-13z"/><path d="m3234 4354c-167-112-285-218-370-331-303-403-343-1007-99-1493 93-186 249-380 399-499 33-26 432-308 886-627 525-368 846-587 883-602 147-59 319-48 446 30 63 39 1643 1149 1706 1199 217 171 394 430 485 707 54 165 73 287 73 467 0 498-210 875-642 1154-72 46-92 49-138 21-48-29-50-63-13-210 42-163 42-221 1-305-38-76-93-127-168-155-60-22-142-26-194-8-19 6-187 99-374 206-187 108-380 215-430 238-346 164-775 164-1120 0-49-24-240-129-424-235-183-106-351-199-373-207-100-35-226-5-306 74-54 53-78 98-92 170-10 56-12 45 31 222 35 144 34 175-3 210-37 34-85 26-164-26z"/></g></svg>