<svg fill="none" height="10" viewBox="0 0 46 10" width="46" xmlns="http://www.w3.org/2000/svg" xmlns:xlink="http://www.w3.org/1999/xlink">
<linearGradient id="a" gradientUnits="userSpaceOnUse" x1="9.91741" x2="3.39513" y1="10.3029" y2="8.06196">
<stop offset="0" stop-color="#fff"/>
<stop offset="1" stop-color="#fff" stop-opacity="0"/>
</linearGradient>
<clipPath id="b">
<path d="m0 0h46v10h-46z"/>
</clipPath>
 <mask id="c" height="10" maskUnits="userSpaceOnUse" width="46" x="0" y="0">
<path d="m46 0h-46v10h46z" fill="#fff"/>
</mask>

<g clip-path="url(#b)" opacity=".5">
<g mask="url(#c)">
<path d="m6.45657.757492c-.38991-.7243258-1.25327-.972588-1.92838-.55451-.67514.418079-.90637 1.344178-.51649 2.068508l3.75248 6.97126c.3899.7243 1.25326.97255 1.9284.55448.67512-.41806.90632-1.34418.51642-2.06848z" fill="url(#a)"/>
<g fill="#fff">
<path d="m7.83123 3.33694c-1.26419-.71095-2.11002.26539-2.47966.85733-.05905.09346-.11362.19009-.16347.28952-.02625.05066-.04048.08606-.04574.09812-.00523.01206 0 0 0 .00403l-.48887.90558-2.02002 3.75181c-.18714.34767-.49537.6014-.8569.70531-.36153.10386-.74675.04954-1.070896-.15119-.324147-.20072-.560683-.53133-.6575695-.91909-.0968863-.38778-.04618689-.80094.1409445-1.14863l3.494911-6.49267.25794-.48255c.12409-.229891.30248-.420658.51716-.553092.2147-.1324338.45813-.20186135.70581-.20129246h.05474c.24794-.00016131.49154.06978686.70624.20279346.21471.133006.39293.324373.5167.554806z"/>
<path d="m18.4863 3.15569h.8098c.0499 0 .0977.02128.1331.05913.0352.03784.0551.08921.0551.14275v5.48897c0 .05355-.0199.10488-.0551.14273-.0354.03788-.0832.05915-.1331.05915h-.8098c-.05 0-.0978-.02127-.1331-.05915-.0353-.03785-.0552-.08918-.0552-.14273v-.115c.0002-.03918-.0104-.07751-.0303-.11033-.02-.03282-.0484-.0587-.0819-.07439-.0334-.01573-.0704-.02064-.1064-.0141-.0361.00652-.0695.02419-.0963.05082-.4159.41234-.952.61849-1.6083.61849-.3635.00445-.7237-.07367-1.057-.22918-.3333-.15552-.6321-.38494-.8768-.67319-.5349-.60051-.8023-1.33318-.8023-2.19803 0-.86481.2674-1.59936.8023-2.20363.2456-.28649.5448-.51434.878-.6687.3331-.15436.6929-.23178 1.0558-.22722.6563 0 1.1927.20374 1.6091.61122.0268.02642.0603.04388.0962.05024.036.00634.0729.00134.1062-.01445s.0617-.04167.0815-.07443c.0199-.03278.0304-.07106.0302-.11015v-.10694c0-.05354.0199-.10491.0552-.14275.0353-.03785.0831-.05913.1331-.05913zm-3.1665 4.29549c.3337.34421.7787.53648 1.2417.53648.4629 0 .908-.19227 1.2417-.53648.1635-.17718.2917-.38818.3768-.62021.085-.232.1252-.48012.118-.72934.0071-.24915-.0332-.49724-.1183-.72921-.085-.23197-.2131-.443-.3765-.6203-.334-.34367-.7789-.53558-1.2417-.53558-.4629 0-.9078.19191-1.2417.53558-.1632.17745-.2911.38851-.376.62045-.0849.23197-.1251.48-.1182.72906-.0071.24913.0331.49719.118.72915.085.23197.2129.44304.3762.6204z"/>
<path d="m25.4101.798401h.8098c.0499 0 .0978.021267.1331.059124.0353.037858.0551.089203.0551.142735v7.84624c0 .05355-.0198.10488-.0551.14273-.0353.03788-.0832.05912-.1331.05912h-.8098c-.0499 0-.0978-.02124-.1331-.05912-.0353-.03785-.0551-.08918-.0551-.14273v-.115c.0001-.03918-.0105-.07754-.0304-.11033-.02-.03282-.0484-.0587-.0818-.0744-.0335-.01572-.0705-.02063-.1065-.01409-.036.00652-.0695.02418-.0962.05082-.416.4123-.9521.61849-1.6084.61849-.3634.00445-.7237-.07367-1.057-.22919-.3333-.15551-.6321-.38494-.8768-.67318-.5344-.60051-.8018-1.33318-.8023-2.19803-.0005-.86482.2669-1.59936.8023-2.20363.2457-.28652.5448-.51434.878-.6687.3332-.15437.6929-.23178 1.0558-.22723.6563 0 1.1927.20374 1.6091.61123.0269.02642.0603.04388.0963.05024.0359.00633.0728.0013.1061-.01445.0334-.01579.0617-.04167.0816-.07446.0198-.03276.0303-.07103.0302-.11012v-2.46421c0-.053532.0198-.104877.0551-.142735.0353-.037857.0832-.059124.1331-.059124zm-3.1665 6.652739c.3337.34421.7787.53648 1.2417.53648s.908-.19227 1.2417-.53648c.1635-.17718.2917-.38821.3768-.62021s.1253-.48016.1181-.72934c.007-.24915-.0333-.49724-.1183-.72921-.0851-.232-.2132-.44303-.3766-.6203-.334-.34367-.7789-.53558-1.2417-.53558s-.9077.19191-1.2417.53558c-.1631.17742-.291.38851-.376.62045-.0849.23197-.1251.47997-.1181.72906-.0071.24912.033.49718.1179.72915.085.23197.213.44303.3762.6204z"/>
<path d="m28.9757 6.6449c-.0305.00015-.0606.00827-.0877.02366-.0273.01543-.0503.03764-.0675.06479-.0173.02715-.0282.05839-.0317.09103-.0034.03267.0003.06573.0115.0964.0998.3046.2852.56848.5308.75518.3151.23966.6997.35948 1.154.35948.5698 0 1.0108-.19945 1.3228-.59836.0284-.03594.0681-.05997.1115-.06788.0434-.00794.088.0007.1262.02445l.6544.40776c.0236.01476.0437.0347.0592.05852.0155.02378.0262.05091.0311.07948.0051.02858.0043.05797-.0023.08618-.0066.02822-.0187.05461-.0354.07743-.5399.73291-1.2995 1.09939-2.2787 1.09939-.8939 0-1.6155-.29276-2.1647-.87824-.5494-.58549-.8243-1.32621-.8248-2.22212 0-.87985.2711-1.61628.8135-2.20928s1.2382-.88976 2.0874-.8903c.8065 0 1.4674.30267 1.9835.908.5158.60534.7737 1.33934.7737 2.20203-.0012.11697-.0084.23376-.0216.34985-.0055.04949-.0273.09518-.0618.12852-.0345.03333-.0794.05197-.1257.05242zm-.0164-1.03746h2.7497c.0287.00009.0575-.007.0834-.0207.0261-.01372.0488-.03369.0664-.05836.0178-.0247.0299-.05339.0353-.08391.0058-.03051.0046-.062-.0031-.092-.08-.32624-.255-.61666-.4994-.82918-.2895-.24361-.6486-.37258-1.0166-.36512-.4396 0-.8056.12948-1.0986.38845-.2357.21031-.4088.48982-.4985.80425-.008.03003-.0092.06163-.0037.0923.0052.03064.0172.05954.0348.08439.0175.02485.0402.045.0664.05888.0261.01385.0549.02103.0839.021z"/>
<path d="m37.0775 3.00247c.6302 0 1.1393.21606 1.5271.64821.3882.43216.5822 1.02543.5828 1.77982v3.41643c0 .05354-.0198.10488-.0552.14275-.0354.03785-.0831.05913-.1331.05913h-.8105c-.05 0-.0977-.02128-.1331-.05913-.0353-.03787-.0552-.08921-.0552-.14275v-3.28694c0-.43967-.1095-.77746-.3292-1.01337-.2193-.23591-.5192-.35388-.8996-.35388-.418 0-.7549.1397-1.0108.41903-.2559.27934-.3841.70558-.3847 1.27876v2.9564c0 .05354-.0198.10488-.0552.14275-.0353.03785-.0831.05913-.1331.05913h-.8119c-.05 0-.0977-.02128-.1331-.05913-.0354-.03787-.0552-.08921-.0552-.14275v-5.48897c0-.05355.0198-.10488.0552-.14276.0354-.03785.0831-.05912.1331-.05912h.8105c.05 0 .0977.02127.1331.05912.0353.03788.0552.08921.0552.14276-.0003.03872.0098.07672.029.10945.0193.0327.0469.05876.0799.07497.0328.01621.0691.02194.105.01649.0356-.00549.0693-.02191.0963-.04731.3476-.33939.8116-.50909 1.3927-.50909z"/>
<path d="m45.0013 3.1557h.8127c.0498 0 .0978.02127.1331.05912.0351.03785.0549.08921.0549.14272v5.489c0 .05355-.0198.10488-.0549.14273-.0353.03788-.0833.05912-.1331.05912h-.8127c-.0501 0-.0981-.02124-.1332-.05912-.0353-.03785-.0552-.08918-.0552-.14273v-.11499c0-.03904-.0106-.07719-.0304-.10985-.0202-.03264-.0483-.0584-.0817-.07406-.0333-.0157-.0701-.02067-.1061-.01428-.0359.00637-.0693.02382-.096.05019-.4169.41233-.9531.61848-1.6083.61848-.3634.00455-.7236-.07352-1.0571-.22903-.3332-.15555-.6319-.38503-.8766-.67333-.5356-.60052-.803-1.33319-.8024-2.19803.0006-.86482.2679-1.59937.8024-2.20364.2455-.28649.5445-.5143.8775-.66867.3332-.15436.6925-.23179 1.0554-.22725.6563 0 1.1928.20374 1.6091.61122.0267.02655.0601.04409.096.05049.036.00642.0731.00139.1064-.01443.0334-.01582.0615-.04172.0814-.07457.0195-.03285.0299-.07118.0296-.11028v-.10697c0-.02657.0049-.05287.0144-.07742.0094-.02454.0235-.04682.0411-.06558.0175-.01875.0385-.0336.0612-.04372.023-.01009.0474-.01524.0725-.01512zm-3.166 4.29548c.3338.34421.7788.53649 1.2417.53649.4632 0 .9079-.19228 1.2417-.53649.1633-.17736.2913-.38842.3764-.62039.0848-.23197.125-.48003.1178-.72915.0069-.24909-.0333-.4971-.1181-.72906-.0848-.23194-.2128-.443-.3761-.62046-.3338-.34367-.7788-.53557-1.2417-.53557s-.9076.1919-1.2417.53557c-.1633.1773-.2915.38833-.3763.6203-.0851.23197-.1254.48006-.1185.72922-.0072.24921.0331.49733.1182.72933.0851.23203.2133.44303.3766.62021z"/>
</g>
</g>
</g>
</svg>