<svg width="144" height="141" viewBox="0 0 144 141" fill="none" xmlns="http://www.w3.org/2000/svg">
<path d="M85.1312 16.5721C79.9911 7.4193 68.6087 4.28217 59.708 9.56516C50.8072 14.8481 47.7587 26.5507 52.8989 35.7035L102.371 123.795C107.511 132.948 118.893 136.085 127.794 130.802C136.695 125.519 139.743 113.816 134.603 104.663L85.1312 16.5721Z" fill="url(#paint0_linear_1496_119224)"/>
<path d="M103.245 49.1653C86.5779 40.1815 75.4271 52.519 70.5536 59.9988C69.775 61.1798 69.0557 62.4009 68.3986 63.6574C68.0526 64.2977 67.8648 64.7448 67.7956 64.8973C67.7264 65.0497 67.7956 64.8973 67.7956 64.9481L61.3502 76.3914L34.7189 123.801C32.2518 128.194 28.1881 131.4 23.4218 132.713C18.6555 134.026 13.5769 133.339 9.30344 130.803C5.02994 128.266 1.91152 124.089 0.634197 119.189C-0.643126 114.289 0.0252817 109.068 2.49238 104.674L48.5684 22.6304L51.969 16.5327C53.605 13.6277 55.9567 11.2171 58.7871 9.54365C61.6176 7.87017 64.827 6.99286 68.0921 7.00004H68.8138C72.0826 6.99801 75.2942 7.8819 78.1248 9.56262C80.9555 11.2433 83.3051 13.6615 84.9369 16.5734L103.245 49.1653Z" fill="white"/>
<defs>
<linearGradient id="paint0_linear_1496_119224" x1="130.758" y1="137.192" x2="45.5662" y2="106.653" gradientUnits="userSpaceOnUse">
<stop stop-color="white"/>
<stop offset="1" stop-color="white" stop-opacity="0"/>
</linearGradient>
</defs>
</svg>
